<svg width="37" height="29" viewBox="0 0 37 29" fill="none" xmlns="http://www.w3.org/2000/svg">
<path d="M20 6.33333H5V4.75H20V6.33333ZM25 7.91667H5V9.5H25V7.91667ZM20 11.0833H11.6667V12.6667H20V11.0833ZM28.3333 11.0833H21.6667V12.6667H28.3333V11.0833ZM11.6667 15.8333H18.3333V14.25H11.6667V15.8333ZM26.6667 14.25H20V15.8333H26.6667V14.25ZM11.6667 19H18.3333V17.4167H11.6667V19ZM26.6667 17.4167H20V19H26.6667V17.4167ZM28.3333 4.75H21.6667V6.33333H28.3333V4.75ZM5 22.1667H18.3333V20.5833H5V22.1667ZM20 22.1667H30V20.5833H20V22.1667ZM26.6667 9.5H31.6667V7.91667H26.6667V9.5ZM36.6667 2.375V26.125C36.6667 26.7549 36.4033 27.359 35.9344 27.8044C35.4656 28.2498 34.8297 28.5 34.1667 28.5H2.5C1.83696 28.5 1.20107 28.2498 0.732233 27.8044C0.263392 27.359 0 26.7549 0 26.125V2.375C0 1.74511 0.263392 1.14102 0.732233 0.695621C1.20107 0.250223 1.83696 0 2.5 0H34.1667C34.8297 0 35.4656 0.250223 35.9344 0.695621C36.4033 1.14102 36.6667 1.74511 36.6667 2.375ZM35 2.77083C35 2.45589 34.8683 2.15384 34.6339 1.93114C34.3995 1.70844 34.0815 1.58333 33.75 1.58333H2.91667C2.58515 1.58333 2.2672 1.70844 2.03278 1.93114C1.79836 2.15384 1.66667 2.45589 1.66667 2.77083V25.7292C1.66667 26.0441 1.79836 26.3462 2.03278 26.5689C2.2672 26.7916 2.58515 26.9167 2.91667 26.9167H33.75C34.0815 26.9167 34.3995 26.7916 34.6339 26.5689C34.8683 26.3462 35 26.0441 35 25.7292V2.77083Z" fill="white" stroke="white" stroke-width="0.00064"/>
</svg>
