<svg width="34" height="34" viewBox="0 0 34 34" fill="none" xmlns="http://www.w3.org/2000/svg">
<path d="M12.25 31.25H21.75M12.25 31.25V23.3333M12.25 31.25H3.7C3.17533 31.25 2.75 30.8247 2.75 30.3V24.2833C2.75 23.7586 3.17533 23.3333 3.7 23.3333H12.25M21.75 31.25V12.25M21.75 31.25H30.3C30.8247 31.25 31.25 30.8247 31.25 30.3V3.7C31.25 3.17533 30.8247 2.75 30.3 2.75H22.7C22.1753 2.75 21.75 3.17533 21.75 3.7V12.25M12.25 23.3333V13.2C12.25 12.6753 12.6753 12.25 13.2 12.25H21.75" stroke="white" stroke-width="3.712"/>
</svg>
