<!DOCTYPE svg PUBLIC "-//W3C//DTD SVG 1.1//EN" "http://www.w3.org/Graphics/SVG/1.1/DTD/svg11.dtd">
<!-- Uploaded to: SVG Repo, www.svgrepo.com, Transformed by: SVG Repo Mixer Tools -->
<svg height="64px" width="64px" version="1.1" id="Capa_1" xmlns="http://www.w3.org/2000/svg" xmlns:xlink="http://www.w3.org/1999/xlink" viewBox="0 0 478.903 478.903" xml:space="preserve" fill="#000000">
<g id="SVGRepo_bgCarrier" stroke-width="0"/>
<g id="SVGRepo_tracerCarrier" stroke-linecap="round" stroke-linejoin="round"/>
<g id="SVGRepo_iconCarrier"> <g> <path style="fill:#fafafa;" d="M404.145,19.724c-3.959-3.601-14.453-6.519-23.427-6.519H114.784c-8.982,0-13.339,2.918-9.738,6.519 c3.601,3.601,13.794,6.519,22.776,6.519h267.235C404.031,26.243,408.103,23.325,404.145,19.724z"/> <path style="fill:#fafafa;" d="M158.507,235.741c-6.73,0-12.193-7.275-12.193-16.257V111.731c0-8.982-4.178-20.435-9.34-25.597 c-5.162-5.162-9.34-2.065-9.34,6.917v89.496c0,8.982-5.682,11.705-12.681,6.088l-2.642-2.113 c-7.007-5.617-12.681-17.444-12.681-26.426V57.067c0,0,0-1.853,0-4.137c0-2.284-4.105-8.242-9.169-13.306 c-5.072-5.072-9.177-1.894-9.177,7.08v172.781c0,8.982-5.462,16.257-12.193,16.257H56.9H29.994C13.428,235.741,0,249.169,0,265.735 v169.969c0,16.566,13.428,29.994,29.994,29.994h169.969c16.566,0,29.994-13.428,29.994-29.994v-0.488c0,0,0-5.462,0-12.193 s7.275-12.193,16.257-12.193h216.431c8.982,0,16.257-7.275,16.257-16.257V118.876c0-8.982-7.275-16.257-16.257-16.257H186.957 c-8.982,0-16.257,7.275-16.257,16.257v100.607C170.7,228.466,165.238,235.741,158.507,235.741z M307.658,156.731 c8.161-8.161,21.386-8.161,29.539,0l64.013,64.004c8.161,8.161,5.422,14.77-6.121,14.77c0,0-6.909,0-15.444,0 s-15.444,7.275-15.444,16.257v46.414c0,11.534-9.356,20.89-20.89,20.89h-41.781c-11.534,0-20.89-9.356-20.89-20.89v-46.414 c0-8.982-6.909-16.257-15.444-16.257H249.75c-11.534,0-14.274-6.617-6.121-14.77L307.658,156.731z M248.596,341.055h140.893 c8.974,0,16.257,7.283,16.257,16.257s-7.283,16.257-16.257,16.257H248.596c-8.974,0-16.257-7.283-16.257-16.257 S239.622,341.055,248.596,341.055z M213.7,265.735V410.83v24.386v0.488c0,7.576-6.161,13.737-13.737,13.737H29.994 c-7.576,0-13.737-6.161-13.737-13.737V265.735c0-7.576,6.161-13.737,13.737-13.737H56.9h24.386h65.029H170.7h29.263 C207.539,251.998,213.7,258.159,213.7,265.735z"/> <path style="fill:#fafafa;" d="M179.812,78.233h272.429c8.982,0,11.047-4.739,4.617-10.583 c-6.43-5.844-18.923-10.583-27.897-10.583H158.645c-8.982,0-11.518,4.739-5.674,10.583 C158.816,73.495,170.838,78.233,179.812,78.233z"/> <path style="fill:#fafafa;" d="M132.675,269.596c-22.272,0-41.635,12.607-51.389,31.051c-4.284,8.096-6.73,17.298-6.73,27.076 c0,4.3,0.48,8.486,1.382,12.51c1.528,6.804,3.536,12.315,2.902,12.827c-0.374,0.309-0.748,0.626-1.089,0.984l-3.276,3.349 L45.26,387.258c-7.852,8.015-7.706,20.882,0.317,28.735c3.95,3.869,9.08,5.796,14.209,5.796c5.267,0,10.551-2.04,14.526-6.113 l27.775-28.393l4.715-4.82c0.301-0.309,0.577-0.642,0.829-0.975c0.431-0.561,5.861,1.496,12.616,2.999 c3.999,0.894,8.153,1.366,12.429,1.366c0.423,0,0.829-0.057,1.252-0.065c4.259-0.081,8.397-0.642,12.388-1.61 c9.169-2.219,17.485-6.584,24.386-12.575c12.29-10.665,20.11-26.353,20.11-43.87c0-17.517-7.82-33.205-20.11-43.87 c-6.901-5.991-15.217-10.364-24.386-12.575C141.933,270.222,137.381,269.596,132.675,269.596z M146.314,358.539 c-4.178,1.861-8.779,2.934-13.64,2.934c-18.598,0-33.734-15.135-33.734-33.742s15.135-33.742,33.734-33.742 c4.861,0,9.462,1.081,13.64,2.934c11.819,5.251,20.11,17.062,20.11,30.807C166.424,341.477,158.133,353.28,146.314,358.539z"/> </g> </g>
</svg>