<?xml version="1.0" standalone="no"?>
<!DOCTYPE svg PUBLIC "-//W3C//DTD SVG 20010904//EN"
 "http://www.w3.org/TR/2001/REC-SVG-20010904/DTD/svg10.dtd">
<svg version="1.0" xmlns="http://www.w3.org/2000/svg"
 width="2454.000000pt" height="1519.000000pt" viewBox="0 0 2454.000000 1519.000000"
 preserveAspectRatio="xMidYMid meet">

<g transform="translate(0.000000,1519.000000) scale(0.100000,-0.100000)"
fill="#000000" stroke="none">
<path d="M11800 10499 c-373 -27 -738 -126 -1069 -293 -281 -141 -488 -292
-727 -530 -296 -297 -492 -592 -633 -956 -123 -317 -177 -585 -188 -930 -15
-489 74 -911 282 -1335 419 -856 1263 -1446 2225 -1556 152 -17 479 -14 633 5
836 106 1560 557 2021 1258 236 359 382 763 432 1196 21 176 15 625 -10 777
-101 616 -369 1134 -812 1567 -417 408 -945 677 -1505 768 -230 37 -419 45
-649 29z m583 -543 c381 -62 691 -182 970 -376 119 -83 334 -298 417 -418 292
-417 428 -926 406 -1523 -23 -670 -216 -1166 -615 -1581 -447 -466 -1012 -668
-1758 -627 -397 21 -741 118 -1022 286 -512 307 -826 790 -943 1448 -25 145
-35 552 -19 760 29 359 103 649 231 906 107 214 218 366 386 529 179 173 346
289 576 399 255 122 438 172 788 215 80 10 489 -3 583 -18z"/>
<path d="M11865 9821 c-230 -37 -416 -157 -576 -373 -184 -249 -308 -580 -383
-1028 -42 -248 -51 -376 -50 -700 1 -316 13 -483 55 -755 93 -604 292 -983
660 -1258 238 -177 475 -208 725 -93 230 106 386 270 527 552 213 426 299 896
301 1639 1 274 -2 326 -21 446 -98 606 -271 1028 -533 1303 -125 132 -250 209
-397 247 -87 22 -235 31 -308 20z"/>
<path d="M17028 9925 c-159 -22 -255 -44 -395 -90 -361 -119 -679 -339 -923
-641 -240 -298 -417 -713 -485 -1139 -23 -138 -31 -482 -15 -631 54 -537 230
-993 503 -1305 203 -232 552 -456 877 -563 265 -87 437 -108 845 -102 l290 5
105 36 c127 44 375 163 606 291 216 119 240 121 287 28 9 -17 28 -80 43 -140
34 -139 43 -154 93 -154 74 0 71 -19 71 487 0 441 0 451 -20 456 -19 5 -20 15
-22 304 l-3 298 -37 3 c-59 5 -70 -15 -101 -179 -15 -79 -32 -183 -37 -231
-20 -174 -54 -295 -122 -436 -148 -303 -428 -530 -765 -619 -132 -34 -351 -43
-473 -19 -429 87 -787 494 -935 1064 -31 115 -59 281 -82 477 -25 217 -26 839
0 1045 79 644 201 1000 444 1303 155 192 379 301 675 326 456 38 867 -178
1093 -575 96 -168 140 -308 191 -599 18 -110 34 -201 34 -202 0 -1 7 -9 16
-17 24 -25 81 -21 96 7 9 16 14 157 19 557 4 294 12 610 20 702 12 160 12 168
-6 188 -26 29 -82 24 -106 -10 -10 -14 -28 -72 -39 -129 -31 -155 -61 -201
-129 -201 -50 0 -88 16 -222 96 -253 150 -495 251 -709 296 -127 26 -536 34
-682 13z"/>
<path d="M4540 9873 c-34 -12 -56 -82 -31 -97 4 -3 61 -22 126 -41 191 -58
252 -99 283 -190 16 -46 17 -176 20 -1820 2 -1270 0 -1789 -9 -1837 -21 -128
-98 -188 -304 -239 -50 -12 -97 -25 -105 -29 -24 -11 -23 -47 1 -71 20 -20 27
-21 113 -14 124 11 1049 6 1161 -5 50 -6 131 -15 180 -21 88 -10 189 -7 390
11 55 6 165 15 245 20 364 27 617 89 940 232 284 125 481 259 665 450 61 62
135 150 166 193 210 297 339 661 395 1115 60 488 -88 1107 -360 1514 -306 455
-834 724 -1581 807 -170 18 -745 23 -1300 9 -499 -12 -720 -8 -940 14 -22 3
-47 2 -55 -1z m2182 -133 c220 -31 475 -173 627 -352 167 -196 260 -415 336
-793 68 -341 79 -467 80 -880 0 -396 -7 -491 -61 -805 -66 -387 -142 -614
-269 -805 -50 -75 -171 -203 -246 -259 -126 -95 -310 -170 -493 -202 -114 -20
-489 -14 -573 9 -102 28 -162 99 -188 226 -13 61 -15 311 -13 1848 l3 1778 23
56 c25 64 89 142 134 165 16 8 47 18 69 22 59 10 481 4 571 -8z"/>
<path d="M9640 3845 l0 -365 148 0 c206 0 293 25 376 107 21 21 50 63 65 93
23 48 26 67 26 160 0 99 -2 110 -33 172 -72 147 -190 198 -459 198 l-123 0 0
-365z m365 261 c93 -40 146 -122 153 -237 6 -106 -16 -177 -73 -234 -56 -57
-117 -75 -247 -75 l-98 0 0 286 0 287 113 -5 c74 -3 125 -11 152 -22z"/>
<path d="M10430 3846 l0 -366 50 0 50 0 -2 363 -3 362 -47 3 -48 3 0 -365z"/>
<path d="M10943 4196 c-59 -19 -104 -49 -153 -102 -63 -69 -83 -122 -88 -234
-5 -130 17 -191 102 -276 79 -79 147 -107 261 -107 108 0 178 27 249 96 70 70
100 133 104 225 l4 72 -196 0 -196 0 0 -40 0 -40 146 0 147 0 -7 -31 c-10 -53
-37 -98 -82 -138 -49 -43 -100 -61 -171 -61 -184 0 -307 171 -259 359 27 105
94 176 190 202 93 25 217 -13 265 -82 25 -37 28 -38 84 -39 l57 0 -19 38 c-27
53 -97 117 -156 143 -62 28 -217 36 -282 15z"/>
<path d="M11600 3846 l0 -366 50 0 50 0 -2 363 -3 362 -47 3 -48 3 0 -365z"/>
<path d="M11870 4170 l0 -40 100 0 100 0 0 -325 0 -325 45 0 45 0 0 325 0 325
100 0 100 0 0 40 0 40 -245 0 -245 0 0 -40z"/>
<path d="M12520 3846 l0 -366 50 0 50 0 -2 363 -3 362 -47 3 -48 3 0 -365z"/>
<path d="M12804 4196 c-3 -8 -4 -27 -2 -43 l3 -28 172 -5 171 -5 -174 -278
c-149 -238 -174 -284 -174 -318 l0 -39 235 0 235 0 0 40 0 40 -176 0 c-148 0
-175 2 -171 14 3 8 83 137 176 286 146 232 171 278 171 311 l0 39 -230 0
c-190 0 -232 -3 -236 -14z"/>
<path d="M13440 3845 l0 -365 200 0 200 0 0 40 0 40 -150 0 -150 0 0 125 0
125 130 0 130 0 0 40 0 40 -130 0 -130 0 0 120 0 120 151 0 150 0 -3 38 -3 37
-197 3 -198 2 0 -365z"/>
<path d="M4992 3858 c-17 -17 -15 -65 4 -72 21 -8 4244 -6 4359 3 l90 6 -31
22 c-78 56 33 53 -2279 53 -1644 0 -2134 -3 -2143 -12z"/>
<path d="M14002 3858 c-16 -16 -15 -63 1 -74 16 -12 4416 -2 4440 10 22 10 23
62 1 70 -9 3 -1009 6 -2223 6 -1703 0 -2210 -3 -2219 -12z"/>
</g>
</svg>
