<svg width="19" height="14" viewBox="0 0 19 14" fill="none" xmlns="http://www.w3.org/2000/svg">
<path d="M9.5 0C15.4375 0 19 6.53125 19 6.53125C19 6.53125 15.4375 13.0625 9.5 13.0625C3.5625 13.0625 0 6.53125 0 6.53125C0 6.53125 3.5625 0 9.5 0ZM9.5 1.1875C5.32 1.1875 2.37262 5.04806 1.39531 6.53125C2.37144 8.01325 5.31881 11.875 9.5 11.875C13.68 11.875 16.6274 8.01444 17.6047 6.53125C16.6286 5.04925 13.6812 1.1875 9.5 1.1875ZM9.5 2.375C10.6023 2.375 11.6595 2.81289 12.4389 3.59234C13.2184 4.37179 13.6562 5.42894 13.6562 6.53125C13.6562 7.63356 13.2184 8.69071 12.4389 9.47016C11.6595 10.2496 10.6023 10.6875 9.5 10.6875C8.39769 10.6875 7.34054 10.2496 6.56109 9.47016C5.78164 8.69071 5.34375 7.63356 5.34375 6.53125C5.34375 5.42894 5.78164 4.37179 6.56109 3.59234C7.34054 2.81289 8.39769 2.375 9.5 2.375ZM9.5 3.5625C8.71293 3.56344 7.95836 3.87652 7.40182 4.43307C6.84527 4.98961 6.53219 5.74418 6.53125 6.53125C6.53125 8.16763 7.86244 9.5 9.5 9.5C11.1376 9.5 12.4688 8.16763 12.4688 6.53125C12.4688 4.89488 11.1376 3.5625 9.5 3.5625Z" fill="white" stroke="white" stroke-width="0.00064"/>
</svg>
